<svg width="1440" height="145" viewBox="0 0 1440 145" fill="none" xmlns="http://www.w3.org/2000/svg" xmlns:xlink="http://www.w3.org/1999/xlink">
<path d="M22.3558 124.704C34.7822 124.704 45 133.672 45 133.672C45 133.672 56.3717 145 68.7981 145C81.2245 145 90 134.734 90 134.734C90 134.734 99.9294 124.704 112.356 124.704C124.782 124.704 135 133.554 135 133.554C135 133.554 146.372 144.882 158.798 144.882C171.224 144.882 180 134.616 180 134.616C180 134.616 189.929 124.586 202.356 124.586C214.782 124.586 225 133.672 225 133.672C225 133.672 236.372 145 248.798 145C261.224 145 270 134.734 270 134.734C270 134.734 279.929 124.704 292.356 124.704C304.782 124.704 315 133.554 315 133.554C315 133.554 326.372 144.882 338.798 144.882C351.224 144.882 360 134.616 360 134.616C360 134.616 369.929 124.586 382.356 124.586C394.782 124.586 405 133.672 405 133.672C405 133.672 416.372 145 428.798 145C441.225 145 450 134.734 450 134.734C450 134.734 459.929 124.704 472.356 124.704C484.782 124.704 495 133.554 495 133.554C495 133.554 506.372 144.882 518.798 144.882C531.224 144.882 540 134.616 540 134.616C540 134.616 549.929 124.586 562.356 124.586C574.782 124.586 585 133.672 585 133.672C585 133.672 596.372 145 608.798 145C621.224 145 630 134.734 630 134.734C630 134.734 639.929 124.704 652.356 124.704C664.782 124.704 675 133.554 675 133.554C675 133.554 686.372 144.882 698.798 144.882C711.224 144.882 720 134.616 720 134.616C720 134.616 729.929 124.704 742.356 124.704C754.782 124.704 765 133.672 765 133.672C765 133.672 776.372 145 788.798 145C801.224 145 810 134.734 810 134.734C810 134.734 819.929 124.704 832.356 124.704C844.782 124.704 855 133.554 855 133.554C855 133.554 866.372 144.882 878.798 144.882C891.224 144.882 900 134.616 900 134.616C900 134.616 909.929 124.586 922.356 124.586C934.782 124.586 945 133.672 945 133.672C945 133.672 956.372 145 968.798 145C981.224 145 990 134.734 990 134.734C990 134.734 999.929 124.704 1012.36 124.704C1024.78 124.704 1035 133.554 1035 133.554C1035 133.554 1046.37 144.882 1058.8 144.882C1071.22 144.882 1080 134.616 1080 134.616C1080 134.616 1089.93 124.586 1102.36 124.586C1114.78 124.586 1125 133.672 1125 133.672C1125 133.672 1136.37 145 1148.8 145C1161.22 145 1170 134.734 1170 134.734C1170 134.734 1179.93 124.704 1192.36 124.704C1204.78 124.704 1215 133.554 1215 133.554C1215 133.554 1226.37 144.882 1238.8 144.882C1251.22 144.882 1260 134.616 1260 134.616C1260 134.616 1269.93 124.586 1282.36 124.586C1294.78 124.586 1305 133.672 1305 133.672C1305 133.672 1316.37 145 1328.8 145C1341.22 145 1350 134.734 1350 134.734C1350 134.734 1359.93 124.704 1372.36 124.704C1384.78 124.704 1395 133.554 1395 133.554C1395 133.554 1406.37 144.882 1418.8 144.882C1431.22 144.882 1440 134.616 1440 134.616V0H0V134.734C0 134.734 9.92936 124.704 22.3558 124.704Z" fill="url(#pattern0_230_92)"/>
<defs>
<pattern id="pattern0_230_92" patternUnits="userSpaceOnUse" patternTransform="matrix(121 0 0 150 0 0)" preserveAspectRatio="none" viewBox="0 0 121 150" width="1" height="1">
<g id="pattern0_230_92_inner">
<rect width="60.5" height="150" fill="#EBECD7"/>
<rect x="60.5" width="60.5" height="150" fill="#839C5C"/>
</g>
</pattern></defs>
</svg>
